<svg width="11" height="15" viewBox="0 0 11 15" fill="none" xmlns="http://www.w3.org/2000/svg">
<path d="M4.656 14.6C4.53867 14.6 4.44267 14.5627 4.368 14.488C4.29333 14.4133 4.256 14.3173 4.256 14.2V13.096C3.43467 12.9893 2.74667 12.7813 2.192 12.472C1.648 12.1627 1.23733 11.7893 0.96 11.352C0.682667 10.904 0.533333 10.4347 0.512 9.944C0.512 9.85867 0.544 9.784 0.608 9.72C0.682667 9.64533 0.768 9.608 0.864 9.608H2.88C3.02933 9.608 3.14133 9.63467 3.216 9.688C3.29067 9.74133 3.36533 9.81067 3.44 9.896C3.52533 10.056 3.64267 10.2107 3.792 10.36C3.952 10.5093 4.15467 10.632 4.4 10.728C4.656 10.8133 4.97067 10.856 5.344 10.856C5.96267 10.856 6.42667 10.76 6.736 10.568C7.056 10.376 7.216 10.1147 7.216 9.784C7.216 9.54933 7.13067 9.35733 6.96 9.208C6.78933 9.048 6.512 8.90933 6.128 8.792C5.75467 8.664 5.25333 8.536 4.624 8.408C3.81333 8.23733 3.12 8.01867 2.544 7.752C1.97867 7.47467 1.54667 7.11733 1.248 6.68C0.949333 6.232 0.8 5.67733 0.8 5.016C0.8 4.16267 1.104 3.43733 1.712 2.84C2.33067 2.24267 3.17867 1.86933 4.256 1.72V0.599999C4.256 0.482666 4.29333 0.386666 4.368 0.311999C4.44267 0.237333 4.53867 0.2 4.656 0.2H5.984C6.09067 0.2 6.18133 0.237333 6.256 0.311999C6.34133 0.386666 6.384 0.482666 6.384 0.599999V1.752C7.12 1.88 7.73867 2.10933 8.24 2.44C8.74133 2.77067 9.12 3.144 9.376 3.56C9.64267 3.976 9.78133 4.376 9.792 4.76C9.792 4.84533 9.76 4.92533 9.696 5C9.632 5.064 9.552 5.096 9.456 5.096H7.344C7.22667 5.096 7.12533 5.07467 7.04 5.032C6.95467 4.98933 6.88 4.92 6.816 4.824C6.752 4.58933 6.58133 4.38667 6.304 4.216C6.02667 4.03467 5.66933 3.944 5.232 3.944C4.77333 3.944 4.41067 4.02933 4.144 4.2C3.87733 4.36 3.744 4.61067 3.744 4.952C3.744 5.16533 3.81333 5.352 3.952 5.512C4.10133 5.672 4.34667 5.81067 4.688 5.928C5.02933 6.04533 5.49333 6.168 6.08 6.296C7.05067 6.47733 7.83467 6.70667 8.432 6.984C9.02933 7.25067 9.46667 7.60267 9.744 8.04C10.0213 8.46667 10.16 9.00533 10.16 9.656C10.16 10.2853 10 10.84 9.68 11.32C9.37067 11.8 8.93333 12.1893 8.368 12.488C7.80267 12.7867 7.14133 12.984 6.384 13.08V14.2C6.384 14.3173 6.34133 14.4133 6.256 14.488C6.18133 14.5627 6.09067 14.6 5.984 14.6H4.656Z" fill="#2959CE"/>
</svg>
