<svg width="10" height="12" viewBox="0 0 10 12" fill="none" xmlns="http://www.w3.org/2000/svg">
<path d="M0.632 12C0.525333 12 0.434667 11.9627 0.36 11.888C0.285333 11.8133 0.248 11.7227 0.248 11.616V1.2C0.248 1.08267 0.285333 0.986666 0.36 0.912C0.434667 0.837333 0.525333 0.799999 0.632 0.799999H4.92C5.752 0.799999 6.47733 0.933333 7.096 1.2C7.71467 1.456 8.19467 1.85067 8.536 2.384C8.87733 2.90667 9.048 3.56267 9.048 4.352C9.048 5.152 8.87733 5.81333 8.536 6.336C8.19467 6.848 7.71467 7.232 7.096 7.488C6.47733 7.744 5.752 7.872 4.92 7.872H2.536V11.616C2.536 11.7227 2.49867 11.8133 2.424 11.888C2.36 11.9627 2.26933 12 2.152 12H0.632ZM2.504 6.096H4.84C5.45867 6.096 5.93333 5.952 6.264 5.664C6.59467 5.36533 6.76 4.928 6.76 4.352C6.76 3.81867 6.60533 3.392 6.296 3.072C5.98667 2.74133 5.50133 2.576 4.84 2.576H2.504V6.096Z" fill="#2959CE"/>
</svg>
